# xmcd
#
# Track frame offsets:
#	150
#	16860
#	31985
#	44570
#	61052
#	81103
#	103026
#	117723
#	133110
#	147087
#	158719
#	179580
#	201441
#
# Disc length: 2864 seconds
#
# Revision: 5
# Processed by: cddbd v1.5.1PL0 Copyright (c) Steve Scherf et al.
# Submitted via: EasyCDDAExtractor 8.2.1.1
#
DISCID=b70b2e0d
DTITLE=Charlie Daniels Band - 25 Favorite Hymns and Gospel Greats CD2
DYEAR=2001
DGENRE=Gospel
TTITLE0=Somebody Was Prayin' For Me
TTITLE1=They Tell Me Of A Home
TTITLE2=Are You Washed In The Blood?
TTITLE3=The Old Rugged Cross
TTITLE4=What A Friend We Have In Jesus
TTITLE5=Blessed Assurance
TTITLE6=Peace In The Valley
TTITLE7=In The Sweet By And By
TTITLE8=I Am Thine O Lord
TTITLE9=Come Unto Me
TTITLE10=Kneel At The Cross
TTITLE11=Life's Railway To Heaven
TTITLE12=There Is Power In The Blood
EXTD=
EXTT0=
EXTT1=
EXTT2=
EXTT3=
EXTT4=
EXTT5=
EXTT6=
EXTT7=
EXTT8=
EXTT9=
EXTT10=
EXTT11=
EXTT12=
PLAYORDER=
